G04 #@! TF.GenerationSoftware,KiCad,Pcbnew,(5.1.7)-1*
G04 #@! TF.CreationDate,2020-12-13T21:56:51-08:00*
G04 #@! TF.ProjectId,hotswap-i2c,686f7473-7761-4702-9d69-32632e6b6963,rev?*
G04 #@! TF.SameCoordinates,Original*
G04 #@! TF.FileFunction,Copper,L2,Bot*
G04 #@! TF.FilePolarity,Positive*
%FSLAX46Y46*%
G04 Gerber Fmt 4.6, Leading zero omitted, Abs format (unit mm)*
G04 Created by KiCad (PCBNEW (5.1.7)-1) date 2020-12-13 21:56:51*
%MOMM*%
%LPD*%
G01*
G04 APERTURE LIST*
G04 #@! TA.AperFunction,ComponentPad*
%ADD10O,1.700000X1.700000*%
G04 #@! TD*
G04 #@! TA.AperFunction,ComponentPad*
%ADD11R,1.700000X1.700000*%
G04 #@! TD*
G04 #@! TA.AperFunction,ViaPad*
%ADD12C,0.800000*%
G04 #@! TD*
G04 #@! TA.AperFunction,Conductor*
%ADD13C,0.250000*%
G04 #@! TD*
G04 #@! TA.AperFunction,Conductor*
%ADD14C,0.254000*%
G04 #@! TD*
G04 #@! TA.AperFunction,Conductor*
%ADD15C,0.100000*%
G04 #@! TD*
G04 APERTURE END LIST*
D10*
X154850000Y-86440000D03*
X154850000Y-83900000D03*
X154850000Y-81360000D03*
D11*
X154850000Y-78820000D03*
D10*
X141250000Y-86440000D03*
X141250000Y-83900000D03*
X141250000Y-81360000D03*
D11*
X141250000Y-78820000D03*
D12*
X147950000Y-79020000D03*
X152200000Y-83270000D03*
X143700000Y-82020000D03*
D13*
X151570000Y-83900000D02*
X141250000Y-83900000D01*
X152200000Y-83270000D02*
X151570000Y-83900000D01*
X144360000Y-81360000D02*
X154850000Y-81360000D01*
X143700000Y-82020000D02*
X144360000Y-81360000D01*
D14*
X153410498Y-77725820D02*
X153374188Y-77845518D01*
X153361928Y-77970000D01*
X153361928Y-79670000D01*
X153374188Y-79794482D01*
X153410498Y-79914180D01*
X153469463Y-80024494D01*
X153548815Y-80121185D01*
X153645506Y-80200537D01*
X153755820Y-80259502D01*
X153828380Y-80281513D01*
X153696525Y-80413368D01*
X153571822Y-80600000D01*
X144397323Y-80600000D01*
X144360000Y-80596324D01*
X144322677Y-80600000D01*
X144322667Y-80600000D01*
X144211014Y-80610997D01*
X144067753Y-80654454D01*
X143935723Y-80725026D01*
X143852083Y-80793668D01*
X143819999Y-80819999D01*
X143796200Y-80848998D01*
X143660198Y-80985000D01*
X143598061Y-80985000D01*
X143398102Y-81024774D01*
X143209744Y-81102795D01*
X143040226Y-81216063D01*
X142896063Y-81360226D01*
X142782795Y-81529744D01*
X142704774Y-81718102D01*
X142665000Y-81918061D01*
X142665000Y-82121939D01*
X142704774Y-82321898D01*
X142782795Y-82510256D01*
X142896063Y-82679774D01*
X143040226Y-82823937D01*
X143209744Y-82937205D01*
X143398102Y-83015226D01*
X143598061Y-83055000D01*
X143801939Y-83055000D01*
X144001898Y-83015226D01*
X144190256Y-82937205D01*
X144359774Y-82823937D01*
X144503937Y-82679774D01*
X144617205Y-82510256D01*
X144695226Y-82321898D01*
X144735000Y-82121939D01*
X144735000Y-82120000D01*
X153571822Y-82120000D01*
X153696525Y-82306632D01*
X153903368Y-82513475D01*
X154077760Y-82630000D01*
X153903368Y-82746525D01*
X153696525Y-82953368D01*
X153534010Y-83196589D01*
X153422068Y-83466842D01*
X153365000Y-83753740D01*
X153365000Y-84046260D01*
X153422068Y-84333158D01*
X153534010Y-84603411D01*
X153696525Y-84846632D01*
X153903368Y-85053475D01*
X154085534Y-85175195D01*
X153968645Y-85244822D01*
X153752412Y-85439731D01*
X153578359Y-85673080D01*
X153453175Y-85935901D01*
X153408524Y-86083110D01*
X153529845Y-86313000D01*
X154723000Y-86313000D01*
X154723000Y-86293000D01*
X154977000Y-86293000D01*
X154977000Y-86313000D01*
X154997000Y-86313000D01*
X154997000Y-86567000D01*
X154977000Y-86567000D01*
X154977000Y-86587000D01*
X154723000Y-86587000D01*
X154723000Y-86567000D01*
X153529845Y-86567000D01*
X153408524Y-86796890D01*
X153453175Y-86944099D01*
X153578359Y-87206920D01*
X153752412Y-87440269D01*
X153885242Y-87560000D01*
X142214758Y-87560000D01*
X142347588Y-87440269D01*
X142521641Y-87206920D01*
X142646825Y-86944099D01*
X142691476Y-86796890D01*
X142570155Y-86567000D01*
X141377000Y-86567000D01*
X141377000Y-86587000D01*
X141123000Y-86587000D01*
X141123000Y-86567000D01*
X141103000Y-86567000D01*
X141103000Y-86313000D01*
X141123000Y-86313000D01*
X141123000Y-86293000D01*
X141377000Y-86293000D01*
X141377000Y-86313000D01*
X142570155Y-86313000D01*
X142691476Y-86083110D01*
X142646825Y-85935901D01*
X142521641Y-85673080D01*
X142347588Y-85439731D01*
X142131355Y-85244822D01*
X142014466Y-85175195D01*
X142196632Y-85053475D01*
X142403475Y-84846632D01*
X142528178Y-84660000D01*
X151532678Y-84660000D01*
X151570000Y-84663676D01*
X151607322Y-84660000D01*
X151607333Y-84660000D01*
X151718986Y-84649003D01*
X151862247Y-84605546D01*
X151994276Y-84534974D01*
X152110001Y-84440001D01*
X152133803Y-84410998D01*
X152239801Y-84305000D01*
X152301939Y-84305000D01*
X152501898Y-84265226D01*
X152690256Y-84187205D01*
X152859774Y-84073937D01*
X153003937Y-83929774D01*
X153117205Y-83760256D01*
X153195226Y-83571898D01*
X153235000Y-83371939D01*
X153235000Y-83168061D01*
X153195226Y-82968102D01*
X153117205Y-82779744D01*
X153003937Y-82610226D01*
X152859774Y-82466063D01*
X152690256Y-82352795D01*
X152501898Y-82274774D01*
X152301939Y-82235000D01*
X152098061Y-82235000D01*
X151898102Y-82274774D01*
X151709744Y-82352795D01*
X151540226Y-82466063D01*
X151396063Y-82610226D01*
X151282795Y-82779744D01*
X151204774Y-82968102D01*
X151170582Y-83140000D01*
X142528178Y-83140000D01*
X142403475Y-82953368D01*
X142196632Y-82746525D01*
X142022240Y-82630000D01*
X142196632Y-82513475D01*
X142403475Y-82306632D01*
X142565990Y-82063411D01*
X142677932Y-81793158D01*
X142735000Y-81506260D01*
X142735000Y-81213740D01*
X142677932Y-80926842D01*
X142565990Y-80656589D01*
X142403475Y-80413368D01*
X142271620Y-80281513D01*
X142344180Y-80259502D01*
X142454494Y-80200537D01*
X142551185Y-80121185D01*
X142630537Y-80024494D01*
X142689502Y-79914180D01*
X142725812Y-79794482D01*
X142738072Y-79670000D01*
X142738072Y-77970000D01*
X142725812Y-77845518D01*
X142689502Y-77725820D01*
X142665010Y-77680000D01*
X153434990Y-77680000D01*
X153410498Y-77725820D01*
G04 #@! TA.AperFunction,Conductor*
D15*
G36*
X153410498Y-77725820D02*
G01*
X153374188Y-77845518D01*
X153361928Y-77970000D01*
X153361928Y-79670000D01*
X153374188Y-79794482D01*
X153410498Y-79914180D01*
X153469463Y-80024494D01*
X153548815Y-80121185D01*
X153645506Y-80200537D01*
X153755820Y-80259502D01*
X153828380Y-80281513D01*
X153696525Y-80413368D01*
X153571822Y-80600000D01*
X144397323Y-80600000D01*
X144360000Y-80596324D01*
X144322677Y-80600000D01*
X144322667Y-80600000D01*
X144211014Y-80610997D01*
X144067753Y-80654454D01*
X143935723Y-80725026D01*
X143852083Y-80793668D01*
X143819999Y-80819999D01*
X143796200Y-80848998D01*
X143660198Y-80985000D01*
X143598061Y-80985000D01*
X143398102Y-81024774D01*
X143209744Y-81102795D01*
X143040226Y-81216063D01*
X142896063Y-81360226D01*
X142782795Y-81529744D01*
X142704774Y-81718102D01*
X142665000Y-81918061D01*
X142665000Y-82121939D01*
X142704774Y-82321898D01*
X142782795Y-82510256D01*
X142896063Y-82679774D01*
X143040226Y-82823937D01*
X143209744Y-82937205D01*
X143398102Y-83015226D01*
X143598061Y-83055000D01*
X143801939Y-83055000D01*
X144001898Y-83015226D01*
X144190256Y-82937205D01*
X144359774Y-82823937D01*
X144503937Y-82679774D01*
X144617205Y-82510256D01*
X144695226Y-82321898D01*
X144735000Y-82121939D01*
X144735000Y-82120000D01*
X153571822Y-82120000D01*
X153696525Y-82306632D01*
X153903368Y-82513475D01*
X154077760Y-82630000D01*
X153903368Y-82746525D01*
X153696525Y-82953368D01*
X153534010Y-83196589D01*
X153422068Y-83466842D01*
X153365000Y-83753740D01*
X153365000Y-84046260D01*
X153422068Y-84333158D01*
X153534010Y-84603411D01*
X153696525Y-84846632D01*
X153903368Y-85053475D01*
X154085534Y-85175195D01*
X153968645Y-85244822D01*
X153752412Y-85439731D01*
X153578359Y-85673080D01*
X153453175Y-85935901D01*
X153408524Y-86083110D01*
X153529845Y-86313000D01*
X154723000Y-86313000D01*
X154723000Y-86293000D01*
X154977000Y-86293000D01*
X154977000Y-86313000D01*
X154997000Y-86313000D01*
X154997000Y-86567000D01*
X154977000Y-86567000D01*
X154977000Y-86587000D01*
X154723000Y-86587000D01*
X154723000Y-86567000D01*
X153529845Y-86567000D01*
X153408524Y-86796890D01*
X153453175Y-86944099D01*
X153578359Y-87206920D01*
X153752412Y-87440269D01*
X153885242Y-87560000D01*
X142214758Y-87560000D01*
X142347588Y-87440269D01*
X142521641Y-87206920D01*
X142646825Y-86944099D01*
X142691476Y-86796890D01*
X142570155Y-86567000D01*
X141377000Y-86567000D01*
X141377000Y-86587000D01*
X141123000Y-86587000D01*
X141123000Y-86567000D01*
X141103000Y-86567000D01*
X141103000Y-86313000D01*
X141123000Y-86313000D01*
X141123000Y-86293000D01*
X141377000Y-86293000D01*
X141377000Y-86313000D01*
X142570155Y-86313000D01*
X142691476Y-86083110D01*
X142646825Y-85935901D01*
X142521641Y-85673080D01*
X142347588Y-85439731D01*
X142131355Y-85244822D01*
X142014466Y-85175195D01*
X142196632Y-85053475D01*
X142403475Y-84846632D01*
X142528178Y-84660000D01*
X151532678Y-84660000D01*
X151570000Y-84663676D01*
X151607322Y-84660000D01*
X151607333Y-84660000D01*
X151718986Y-84649003D01*
X151862247Y-84605546D01*
X151994276Y-84534974D01*
X152110001Y-84440001D01*
X152133803Y-84410998D01*
X152239801Y-84305000D01*
X152301939Y-84305000D01*
X152501898Y-84265226D01*
X152690256Y-84187205D01*
X152859774Y-84073937D01*
X153003937Y-83929774D01*
X153117205Y-83760256D01*
X153195226Y-83571898D01*
X153235000Y-83371939D01*
X153235000Y-83168061D01*
X153195226Y-82968102D01*
X153117205Y-82779744D01*
X153003937Y-82610226D01*
X152859774Y-82466063D01*
X152690256Y-82352795D01*
X152501898Y-82274774D01*
X152301939Y-82235000D01*
X152098061Y-82235000D01*
X151898102Y-82274774D01*
X151709744Y-82352795D01*
X151540226Y-82466063D01*
X151396063Y-82610226D01*
X151282795Y-82779744D01*
X151204774Y-82968102D01*
X151170582Y-83140000D01*
X142528178Y-83140000D01*
X142403475Y-82953368D01*
X142196632Y-82746525D01*
X142022240Y-82630000D01*
X142196632Y-82513475D01*
X142403475Y-82306632D01*
X142565990Y-82063411D01*
X142677932Y-81793158D01*
X142735000Y-81506260D01*
X142735000Y-81213740D01*
X142677932Y-80926842D01*
X142565990Y-80656589D01*
X142403475Y-80413368D01*
X142271620Y-80281513D01*
X142344180Y-80259502D01*
X142454494Y-80200537D01*
X142551185Y-80121185D01*
X142630537Y-80024494D01*
X142689502Y-79914180D01*
X142725812Y-79794482D01*
X142738072Y-79670000D01*
X142738072Y-77970000D01*
X142725812Y-77845518D01*
X142689502Y-77725820D01*
X142665010Y-77680000D01*
X153434990Y-77680000D01*
X153410498Y-77725820D01*
G37*
G04 #@! TD.AperFunction*
M02*
