G04 #@! TF.GenerationSoftware,KiCad,Pcbnew,(5.1.7)-1*
G04 #@! TF.CreationDate,2020-12-13T21:56:51-08:00*
G04 #@! TF.ProjectId,hotswap-i2c,686f7473-7761-4702-9d69-32632e6b6963,rev?*
G04 #@! TF.SameCoordinates,Original*
G04 #@! TF.FileFunction,Paste,Top*
G04 #@! TF.FilePolarity,Positive*
%FSLAX46Y46*%
G04 Gerber Fmt 4.6, Leading zero omitted, Abs format (unit mm)*
G04 Created by KiCad (PCBNEW (5.1.7)-1) date 2020-12-13 21:56:51*
%MOMM*%
%LPD*%
G01*
G04 APERTURE LIST*
%ADD10R,1.970000X0.600000*%
G04 APERTURE END LIST*
G36*
G01*
X149725000Y-78782500D02*
X149725000Y-79257500D01*
G75*
G02*
X149487500Y-79495000I-237500J0D01*
G01*
X148912500Y-79495000D01*
G75*
G02*
X148675000Y-79257500I0J237500D01*
G01*
X148675000Y-78782500D01*
G75*
G02*
X148912500Y-78545000I237500J0D01*
G01*
X149487500Y-78545000D01*
G75*
G02*
X149725000Y-78782500I0J-237500D01*
G01*
G37*
G36*
G01*
X151475000Y-78782500D02*
X151475000Y-79257500D01*
G75*
G02*
X151237500Y-79495000I-237500J0D01*
G01*
X150662500Y-79495000D01*
G75*
G02*
X150425000Y-79257500I0J237500D01*
G01*
X150425000Y-78782500D01*
G75*
G02*
X150662500Y-78545000I237500J0D01*
G01*
X151237500Y-78545000D01*
G75*
G02*
X151475000Y-78782500I0J-237500D01*
G01*
G37*
G36*
G01*
X150787500Y-86757500D02*
X150787500Y-86282500D01*
G75*
G02*
X151025000Y-86045000I237500J0D01*
G01*
X151525000Y-86045000D01*
G75*
G02*
X151762500Y-86282500I0J-237500D01*
G01*
X151762500Y-86757500D01*
G75*
G02*
X151525000Y-86995000I-237500J0D01*
G01*
X151025000Y-86995000D01*
G75*
G02*
X150787500Y-86757500I0J237500D01*
G01*
G37*
G36*
G01*
X148962500Y-86757500D02*
X148962500Y-86282500D01*
G75*
G02*
X149200000Y-86045000I237500J0D01*
G01*
X149700000Y-86045000D01*
G75*
G02*
X149937500Y-86282500I0J-237500D01*
G01*
X149937500Y-86757500D01*
G75*
G02*
X149700000Y-86995000I-237500J0D01*
G01*
X149200000Y-86995000D01*
G75*
G02*
X148962500Y-86757500I0J237500D01*
G01*
G37*
D10*
X150420000Y-80865000D03*
X150420000Y-82135000D03*
X150420000Y-83405000D03*
X150420000Y-84675000D03*
X145480000Y-84675000D03*
X145480000Y-83405000D03*
X145480000Y-82135000D03*
X145480000Y-80865000D03*
G36*
G01*
X146212500Y-79257500D02*
X146212500Y-78782500D01*
G75*
G02*
X146450000Y-78545000I237500J0D01*
G01*
X146950000Y-78545000D01*
G75*
G02*
X147187500Y-78782500I0J-237500D01*
G01*
X147187500Y-79257500D01*
G75*
G02*
X146950000Y-79495000I-237500J0D01*
G01*
X146450000Y-79495000D01*
G75*
G02*
X146212500Y-79257500I0J237500D01*
G01*
G37*
G36*
G01*
X144387500Y-79257500D02*
X144387500Y-78782500D01*
G75*
G02*
X144625000Y-78545000I237500J0D01*
G01*
X145125000Y-78545000D01*
G75*
G02*
X145362500Y-78782500I0J-237500D01*
G01*
X145362500Y-79257500D01*
G75*
G02*
X145125000Y-79495000I-237500J0D01*
G01*
X144625000Y-79495000D01*
G75*
G02*
X144387500Y-79257500I0J237500D01*
G01*
G37*
G36*
G01*
X144975000Y-86282500D02*
X144975000Y-86757500D01*
G75*
G02*
X144737500Y-86995000I-237500J0D01*
G01*
X144162500Y-86995000D01*
G75*
G02*
X143925000Y-86757500I0J237500D01*
G01*
X143925000Y-86282500D01*
G75*
G02*
X144162500Y-86045000I237500J0D01*
G01*
X144737500Y-86045000D01*
G75*
G02*
X144975000Y-86282500I0J-237500D01*
G01*
G37*
G36*
G01*
X146725000Y-86282500D02*
X146725000Y-86757500D01*
G75*
G02*
X146487500Y-86995000I-237500J0D01*
G01*
X145912500Y-86995000D01*
G75*
G02*
X145675000Y-86757500I0J237500D01*
G01*
X145675000Y-86282500D01*
G75*
G02*
X145912500Y-86045000I237500J0D01*
G01*
X146487500Y-86045000D01*
G75*
G02*
X146725000Y-86282500I0J-237500D01*
G01*
G37*
M02*
